<svg width="131" height="127" viewBox="0 0 131 127" fill="none" xmlns="http://www.w3.org/2000/svg">
<path d="M95.2653 40.1678L82.9728 46.3293L52.8953 25.7309C51.1343 24.6131 49.0499 23.9885 46.8611 23.9226C44.6724 23.8568 42.4601 24.3521 40.4569 25.3566L39.7804 25.6957C38.2624 26.4542 36.9256 27.5235 35.8758 28.819C34.826 30.1145 34.0921 31.6007 33.732 33.1599C33.372 34.7191 33.3957 36.3086 33.8013 37.8025C34.2069 39.2964 34.9833 40.6539 36.069 41.7673L54.481 60.6104L45.6194 65.0522C44.1557 65.7902 42.5733 66.2571 40.9638 66.4259C39.3543 66.5946 37.7497 66.4619 36.2428 66.0354L28.5687 63.8735C26.6095 63.3256 24.4684 63.3966 22.4557 64.0762C20.443 64.7559 18.6635 66.0087 17.3752 67.6532C16.5762 68.6668 15.9931 69.8087 15.662 71.0086C15.3309 72.2086 15.2586 73.4413 15.4497 74.631C15.644 75.9127 16.1142 77.1243 16.8321 78.1929C17.5499 79.2616 18.5007 80.1653 19.6273 80.8499L30.4118 87.3893C33.3356 89.1567 36.7614 90.1269 40.3437 90.2021C43.9261 90.2772 47.5383 89.4546 50.8163 87.8172L64.6105 80.903L65.9428 99.0385C66.0615 100.661 66.598 102.202 67.5065 103.529C68.4149 104.857 69.6682 105.931 71.159 106.661C72.6498 107.39 74.3337 107.753 76.0665 107.718C77.7994 107.683 79.5295 107.251 81.1089 106.46C83.0823 105.483 84.783 104.043 86.0349 102.291C87.2868 100.539 88.0443 98.5373 88.2292 96.4936L92.2845 67.0318L105.428 60.4437C108.386 58.9612 110.687 56.4714 111.825 53.522C112.963 50.5725 112.846 47.405 111.498 44.7163C110.15 42.0275 107.683 40.0378 104.639 39.1848C101.595 38.3318 98.2228 38.6854 95.2653 40.1678ZM42.2827 36.3019C42.023 36.0354 41.8372 35.7106 41.74 35.3531C41.6428 34.9956 41.6369 34.6153 41.7228 34.2422C41.8086 33.869 41.9839 33.5132 42.2347 33.203C42.4856 32.8927 42.8051 32.6364 43.1681 32.4543L43.8446 32.1152C44.4902 31.7853 45.2038 31.6163 45.9132 31.6253C46.6227 31.6343 47.3026 31.821 47.8841 32.1666L74.6538 50.499L62.22 56.7313L42.2827 36.3019ZM102.041 53.6851L86.8339 61.3072C86.2032 61.6238 85.6562 62.081 85.2444 62.6358C84.8325 63.1907 84.5693 63.8249 84.4795 64.4788L80.1023 96.3049C80.0496 96.9981 79.8006 97.6794 79.3816 98.2771C78.9626 98.8748 78.389 99.3667 77.7212 99.7014C77.3435 99.8911 76.9295 99.9946 76.5149 100.003C76.1003 100.011 75.6974 99.9245 75.3408 99.7498C74.9842 99.575 74.6847 99.3176 74.4678 98.9997C74.2509 98.6817 74.1233 98.3128 74.0958 97.9245L72.3526 74.274C72.3064 73.6574 72.1016 73.0721 71.7556 72.5679C71.4095 72.0638 70.9326 71.6559 70.3656 71.3791C69.7985 71.1023 69.1583 70.9649 68.4996 70.9786C67.8408 70.9923 67.1832 71.1567 66.583 71.4577L47.4286 81.0586C45.4641 82.0396 43.2991 82.5316 41.1524 82.4851C39.0057 82.4385 36.9534 81.8549 35.203 80.7933L24.3982 74.2598C24.1702 74.1193 23.9775 73.9352 23.8312 73.7182C23.6849 73.5012 23.588 73.2557 23.546 72.9956C23.5082 72.8273 23.5091 72.6505 23.5488 72.4769C23.5884 72.3033 23.6658 72.1368 23.7759 71.9882C23.9496 71.7628 24.1749 71.5759 24.4329 71.4433C24.8331 71.2458 25.2871 71.1971 25.6996 71.3073L33.367 73.4557C35.8808 74.1668 38.5575 74.3875 41.2422 74.1052C43.9268 73.8228 46.566 73.043 49.007 71.8108L98.6529 46.9264C99.6388 46.4323 100.763 46.3144 101.777 46.5988C102.792 46.8831 103.615 47.5463 104.064 48.4426C104.513 49.3388 104.552 50.3947 104.173 51.3778C103.793 52.361 103.026 53.1909 102.041 53.6851Z" fill="black"/>
</svg>
